<svg width="30" height="31" viewBox="0 0 30 31" fill="none" xmlns="http://www.w3.org/2000/svg">
<g clip-path="url(#clip0_179_10002)">
<path d="M30 15.5C30 7.21578 23.2842 0.5 15 0.5C6.71578 0.5 0 7.21578 0 15.5C0 22.9869 5.48531 29.1925 12.6562 30.3178V19.8359H8.84766V15.5H12.6562V12.1953C12.6562 8.43594 14.8957 6.35938 18.322 6.35938C19.9631 6.35938 21.6797 6.65234 21.6797 6.65234V10.3438H19.7883C17.9249 10.3438 17.3438 11.5 17.3438 12.6863V15.5H21.5039L20.8389 19.8359H17.3438V30.3178C24.5147 29.1925 30 22.987 30 15.5Z" fill="#1877F2"/>
<path d="M20.8389 19.8359L21.5039 15.5H17.3438V12.6863C17.3438 11.4999 17.9249 10.3438 19.7883 10.3438H21.6797V6.65234C21.6797 6.65234 19.9631 6.35938 18.3219 6.35938C14.8957 6.35938 12.6562 8.43594 12.6562 12.1953V15.5H8.84766V19.8359H12.6562V30.3178C13.4316 30.4393 14.2152 30.5002 15 30.5C15.7848 30.5002 16.5684 30.4393 17.3438 30.3178V19.8359H20.8389Z" fill="white"/>
</g>
<defs>
<clipPath id="clip0_179_10002">
<rect width="30" height="30" fill="white" transform="translate(0 0.5)"/>
</clipPath>
</defs>
</svg>
